<svg xmlns="http://www.w3.org/2000/svg"  viewBox="0 0 64 64" width="64px" height="64px"><polygon fill="#ff8088" points="52,8 54.472,13.267 60,14.111 56,18.211 56.944,24 52,21.267 47.056,24 48,18.211 44,14.111 49.528,13.267"/><path fill="#759acc" d="M40,20l-12,4l-2.483-0.035c1.838-0.238,3.322-1.736,3.471-3.657c0.17-2.203-1.477-4.126-3.679-4.297 c-2.203-0.17-4.126,1.477-4.297,3.679c-0.165,2.132,1.378,3.987,3.474,4.26l-3.328-0.046c-0.369-0.029-0.739,0.046-1.068,0.215 L7,29.021L7.763,32l10.374-2.311l-1.46,5.905l-5.602,7.59l-5.062,0.611L6.7,47.86l7.056-0.457l6.677-8.51l-4.226,15.721L21.193,55 l6.914-26l13.73-6.774L40,20z"/><rect width="2" height="4" x="51" y="1" fill="#ffe38f"/><rect width="4" height="2" x="58.586" y="6.414" fill="#ffe38f" transform="rotate(-45.001 60.586 7.415)"/><rect width="2" height="4" x="42" y="5.414" fill="#ffe38f" transform="rotate(-45.001 43 7.415)"/><path fill="#657280" d="M1.111,58.045l-0.223-1.988c0.932-0.104,1.799-0.407,2.575-0.9c1.744-1.108,2.383-2.772,2.576-3.437 l1.92,0.561c-0.257,0.881-1.105,3.09-3.424,4.563C3.501,57.502,2.349,57.906,1.111,58.045z"/><path fill="#657280" d="M2.118,62.945l-0.236-1.986c1.677-0.199,3.2-0.793,4.527-1.766c2.526-1.851,3.372-4.413,3.619-5.43 l1.943,0.473c-0.299,1.229-1.322,4.33-4.381,6.57C6.005,61.969,4.112,62.708,2.118,62.945z"/><rect width="2" height="2" x="58" y="56" fill="#99aecc"/><rect width="2" height="2" x="58" y="60" fill="#99aecc"/><rect width="2" height="2" x="60" y="58" fill="#99aecc"/><rect width="2" height="2" x="56" y="58" fill="#99aecc"/><rect width="2" height="2" x="46" y="48" fill="#99aecc"/><rect width="2" height="2" x="46" y="52" fill="#99aecc"/><rect width="2" height="2" x="48" y="50" fill="#99aecc"/><rect width="2" height="2" x="44" y="50" fill="#99aecc"/></svg>