<svg xmlns="http://www.w3.org/2000/svg"  viewBox="0 0 64 64" width="64px" height="64px"><rect width="15.892" height="2" x="35.054" y="48.5" fill="#efad1b" transform="rotate(-30.258 43.002 49.501)"/><rect width="2" height="15.892" x="20" y="41.554" fill="#efad1b" transform="rotate(-59.746 21 49.5)"/><rect width="2" height="15.892" x="42" y="6.554" fill="#efad1b" transform="rotate(-59.746 43 14.5)"/><rect width="15.892" height="2" x="13.054" y="13.5" fill="#efad1b" transform="rotate(-30.258 21 14.5)"/><rect width="2" height="14" x="53" y="25" fill="#efad1b"/><rect width="2" height="15" x="9" y="24" fill="#efad1b"/><rect width="2" height="6" x="31" y="45" fill="#efad1b"/><rect width="2" height="6" x="31" y="13" fill="#efad1b"/><rect width="2.001" height="7.252" x="45.775" y="35.979" fill="#efad1b" transform="rotate(-57.913 46.775 39.605)"/><rect width="7.256" height="2" x="43.142" y="23.39" fill="#efad1b" transform="rotate(-31.928 46.771 24.39)"/><rect width="7.252" height="2.001" x="13.599" y="38.605" fill="#efad1b" transform="rotate(-32.077 17.225 39.605)"/><rect width="2.001" height="7.252" x="16.225" y="20.769" fill="#efad1b" transform="rotate(-57.913 17.225 24.395)"/><circle cx="32" cy="32" r="14" fill="#fffa48"/><path fill="#fcea42" d="M40,38A13.975,13.975,0,0,1,26.953,18.953,13.993,13.993,0,1,0,45.047,37.047,13.935,13.935,0,0,1,40,38Z"/><circle cx="32" cy="32" r="10" fill="#fdc741"/><path fill="#efad1b" d="M32,22A10,10,0,1,0,42,32,10,10,0,0,0,32,22Zm-5.959,2.818A10,10,0,0,1,39.182,37.959,13.978,13.978,0,0,1,26.041,24.818Z"/><polygon fill="#fdc741" points="32 38 27 35 27 29 32 32 32 38"/><polygon fill="#fcea42" points="32 38 37 35 37 29 32 32 32 38"/><polygon fill="#fffa48" points="27 29 32 32 37 29 32 26 27 29"/><polyline fill="#fffa48" points="32 50 27 53 32 56 37 53 32 50"/><polygon fill="#fdc741" points="27 58 32 61 32 56 27 53 27 58"/><polygon fill="#fcea42" points="37 58 32 61 32 56 37 53 37 58"/><polyline fill="#fffa48" points="54 38 49 41 54 44 59 41 54 38"/><polygon fill="#fdc741" points="49 46 54 49 54 44 49 41 49 46"/><polygon fill="#fcea42" points="59 46 54 49 54 44 59 41 59 46"/><polyline fill="#fffa48" points="54 15 49 18 54 21 59 18 54 15"/><polygon fill="#fdc741" points="49 23 54 26 54 21 49 18 49 23"/><polygon fill="#fcea42" points="59 23 54 26 54 21 59 18 59 23"/><polyline fill="#fffa48" points="32 3 27 6 32 9 37 6 32 3"/><polygon fill="#fdc741" points="27 11 32 14 32 9 27 6 27 11"/><polygon fill="#fcea42" points="37 11 32 14 32 9 37 6 37 11"/><polyline fill="#fffa48" points="10 15 5 18 10 21 15 18 10 15"/><polygon fill="#fdc741" points="5 23 10 26 10 21 5 18 5 23"/><polygon fill="#fcea42" points="15 23 10 26 10 21 15 18 15 23"/><polyline fill="#fffa48" points="10 38 5 41 10 44 15 41 10 38"/><polygon fill="#fdc741" points="5 46 10 49 10 44 5 41 5 46"/><polygon fill="#fcea42" points="15 46 10 49 10 44 15 41 15 46"/></svg>