<svg xmlns="http://www.w3.org/2000/svg" width="80" height="80" viewBox="0 0 40 40"><path fill="#dff0fe" d="M4,34.5c-1.378,0-2.5-1.122-2.5-2.5V9c0-1.378,1.122-2.5,2.5-2.5h32c1.378,0,2.5,1.122,2.5,2.5v23 c0,1.378-1.122,2.5-2.5,2.5H4z"/><path fill="#4788c7" d="M36,7c1.103,0,2,0.897,2,2v23c0,1.103-0.897,2-2,2H4c-1.103,0-2-0.897-2-2V9c0-1.103,0.897-2,2-2H36 M36,6H4C2.343,6,1,7.343,1,9v23c0,1.657,1.343,3,3,3h32c1.657,0,3-1.343,3-3V9C39,7.343,37.657,6,36,6L36,6z"/><path fill="#b6dcfe" d="M38,32V9c0-1.105-0.895-2-2-2H4C2.895,7,2,7.895,2,9l18.772,25H36C37.105,34,38,33.105,38,32z"/><path fill="#fff" d="M38,32V10.715L5,34h31C36.748,34,38,33.205,38,32z"/><path fill="#dff0fe" d="M20.772,34H36c1.105,0,2-0.895,2-2V10.715l-22.69,16.01L20.772,34z"/><path fill="#98ccfd" d="M4,34.5c-1.378,0-2.5-1.122-2.5-2.5V9.5h3v25H4z"/><path fill="#4788c7" d="M4,10v24c-1.103,0-2-0.897-2-2V10H4 M5,9H1v1v22c0,1.657,1.343,3,3,3h1V9L5,9z"/><path fill="#98ccfd" d="M35.5,34.5v-25h3V32c0,1.378-1.122,2.5-2.5,2.5H35.5z"/><path fill="#4788c7" d="M38,10v22c0,1.103-0.897,2-2,2V10H38 M39,9h-4v26h1c1.657,0,3-1.343,3-3V9L39,9z"/><path fill="#fff" d="M2.6,10.564c-0.288-0.201-1.1-0.91-1.1-1.542C1.5,7.622,2.622,6.5,4,6.5h32 c1.378,0,2.5,1.122,2.5,2.5c0,0.654-0.812,1.364-1.097,1.563L20,22.881L2.6,10.564z"/><path fill="#4788c7" d="M36,7c1.103,0,2,0.897,2,2.024c0,0.326-0.523,0.876-0.889,1.134L20,22.269L2.884,10.153 C2.523,9.898,2,9.349,2,9c0-1.103,0.897-2,2-2h16H36 M36,6H20H4C2.343,6,1,7.343,1,9v0.023c0,1.042,1.311,1.95,1.311,1.95 L20,23.494l17.689-12.52c0,0,1.311-0.909,1.311-1.95V9C39,7.343,37.657,6,36,6L36,6z"/><g><path fill="#98ccfd" d="M2.6,10.564c-0.109-0.081-0.227-0.173-0.364-0.3c-0.261-0.243-0.465-0.497-0.589-0.731 C1.549,9.349,1.5,9.178,1.5,9.022c0-0.986,0.569-1.864,1.438-2.273L20,18.827L37.063,6.75C37.932,7.159,38.5,8.035,38.5,9 c0,0.101-0.012,0.183-0.037,0.269c-0.164,0.568-0.821,1.127-1.06,1.295L20,22.881L2.6,10.564z"/><path fill="#4788c7" d="M2.905,7.339L19.422,19.03L20,19.439l0.578-0.409L37.095,7.34C37.65,7.704,38,8.329,38,9.024 c0,0.03-0.006,0.066-0.017,0.106c-0.113,0.391-0.633,0.86-0.871,1.028L20,22.269L2.855,10.132C2.8,10.09,2.697,10.01,2.578,9.899 c-0.221-0.206-0.39-0.414-0.49-0.601C2.031,9.191,2,9.093,2,9C2,8.324,2.35,7.703,2.905,7.339 M3.003,6.183 C1.839,6.595,1,7.695,1,9v0.023c0,0.26,0.082,0.513,0.205,0.744c0.184,0.347,0.461,0.649,0.691,0.864 c0.154,0.143,0.287,0.248,0.358,0.301c0.036,0.027,0.056,0.041,0.056,0.041L20,23.494l17.689-12.52c0,0,1.004-0.696,1.255-1.568 C38.979,9.282,39,9.154,39,9.024V9c0-1.305-0.838-2.404-2.002-2.817L20,18.214L3.003,6.183L3.003,6.183z"/></g></svg>