<svg xmlns="http://www.w3.org/2000/svg" width="64" height="64" viewBox="0 0 512 512"><path fill="#7ce5e9" d="M403.79,232.64c0,45.59-22.54,86.02-57.15,112.04a73.443,73.443,0,0,0-29.43,53.68H194.8a73.367,73.367,0,0,0-29.78-54.04c-34.8-25.84-56.97-66.44-56.81-112.18.27-74.03,61.61-136.71,138.51-141.23C332.52,85.87,403.79,151.28,403.79,232.64Z"/><path fill="#67bfbf" d="M195.02,344.14c-34.8-25.84-56.97-66.35-56.81-112.09C138.473,159.867,196.8,98.529,271,91.321a156.516,156.516,0,0,0-24.278-.434c-76.9,4.52-138.24,67.212-138.51,141.242-.16,45.74,22.01,86.165,56.81,112.005C182.42,357.064,193.42,377,194.8,398h30C223.42,377,212.42,357.07,195.02,344.14Z"/><g data-name="Path"><polygon fill="#6d7486" points="312.26 473.83 312.26 474 301.38 501 210.62 501 199.74 474 199.74 473.83 312.26 473.83"/><rect width="122.11" height="24.25" x="194.94" y="424.47" fill="#6d7486"/></g><path fill="#ffd8b7" d="M212.53,158.49l.18-.33a18.749,18.749,0,1,1,35.04-9.28v154.5a22.5,22.5,0,0,1-39.16,15.12l-.01-.01a22.494,22.494,0,0,1-35.83-18.12V289.48l.01-.02a29.993,29.993,0,0,1-7.38-54.45,21.214,21.214,0,0,1-6.93-6.59,21.444,21.444,0,0,1,5.99-29.73,21.183,21.183,0,0,1,5.92-2.75,30,30,0,0,1,42.17-37.45Z"/><path fill="#ffd8b7" d="M341.64,195.94a21.183,21.183,0,0,1,5.92,2.75,21.444,21.444,0,0,1,5.99,29.73,21.214,21.214,0,0,1-6.93,6.59,29.993,29.993,0,0,1-7.38,54.45l.01.02v10.89a22.494,22.494,0,0,1-35.83,18.12l-.01.01a22.5,22.5,0,0,1-39.16-15.13V148.87a18.75,18.75,0,1,1,35.04,9.29l.18.33a30.008,30.008,0,0,1,42.17,37.45Z"/><rect width="142" height="27" x="185" y="448" fill="#978cac"/><rect width="142" height="28" x="185" y="397" fill="#978cac"/><path fill="#d4e1f4" d="M256,71.789a6,6,0,0,1-6-6V11a6,6,0,0,1,12,0V65.789A6,6,0,0,1,256,71.789Z"/><path fill="#d4e1f4" d="M484.745,245.745H429.956a6,6,0,0,1,0-12h54.789a6,6,0,0,1,0,12Z"/><path fill="#d4e1f4" d="M82.044,245.745H27.255a6,6,0,1,1,0-12H82.044a6,6,0,0,1,0,12Z"/><path fill="#d4e1f4" d="M379.005,122.739a6,6,0,0,1-4.243-10.242L413.5,73.755a6,6,0,0,1,8.486,8.485l-38.742,38.742A5.986,5.986,0,0,1,379.005,122.739Z"/><path fill="#d4e1f4" d="M94.253,407.491a6,6,0,0,1-4.243-10.242l38.742-38.742a6,6,0,0,1,8.486,8.485L98.5,405.734A5.986,5.986,0,0,1,94.253,407.491Z"/><path fill="#d4e1f4" d="M417.747,407.491a5.984,5.984,0,0,1-4.243-1.757l-38.742-38.742a6,6,0,0,1,8.486-8.485l38.742,38.742a6,6,0,0,1-4.243,10.242Z"/><path fill="#d4e1f4" d="M133,122.739a5.984,5.984,0,0,1-4.243-1.757L90.01,82.24A6,6,0,0,1,98.5,73.755L137.238,112.5A6,6,0,0,1,133,122.739Z"/><path fill="#d3af94" d="M295.945,245.783a8.4,8.4,0,0,1,.362,3.766,6,6,0,1,0,11.9,1.564,20.463,20.463,0,0,0-10.875-20.826,8.489,8.489,0,0,1-.126-4.269,8.4,8.4,0,0,1,1.644-3.407,6,6,0,0,0-9.361-7.509,20.311,20.311,0,0,0-3.979,8.229,20.542,20.542,0,0,0-.5,4.841,20.171,20.171,0,0,0-9.118,3.647,6,6,0,0,0,7.016,9.736,8.51,8.51,0,0,1,13.041,4.228Z"/><path fill="#d3af94" d="M333.464,207.145a5.3,5.3,0,0,1-2.794-6.066,6,6,0,0,0-11.623-2.985,17.275,17.275,0,0,0,1.459,12.316,5.261,5.261,0,0,1-1.19,1.806A6,6,0,0,0,327.7,220.8a17.282,17.282,0,0,0,2.023-2.369,5.917,5.917,0,0,0,1.105.112,6,6,0,0,0,2.632-11.395Z"/><path fill="#d3af94" d="M285.613,186.89a17.317,17.317,0,0,0,2.872.764,17.586,17.586,0,0,0,.269,1.922,17.261,17.261,0,0,0,1.806,4.934,6,6,0,1,0,10.509-5.792,5.29,5.29,0,0,1,3.587-7.74,5.215,5.215,0,0,1,2.352.057,6,6,0,1,0,2.984-11.623,17.248,17.248,0,0,0-18.172,6.478,5.2,5.2,0,0,1-4.114-1.557,6,6,0,0,0-8.579,8.391A17.135,17.135,0,0,0,285.613,186.89Z"/><path fill="#d3af94" d="M321.059,279.088a11.588,11.588,0,0,1,2.931-4.936,6,6,0,1,0-8.48-8.491,23.59,23.59,0,0,0-5.132,7.7,11.576,11.576,0,0,1-11.078-1.193A6,6,0,1,0,292.419,282a23.42,23.42,0,0,0,16.461,4.061,23.655,23.655,0,0,0,5.1,11.308,6,6,0,1,0,9.258-7.634,11.627,11.627,0,0,1-2.255-10.366C321.009,279.275,321.035,279.182,321.059,279.088Z"/><path fill="#d3af94" d="M236.112,231.819a20.149,20.149,0,0,0-9.118-3.647,20.52,20.52,0,0,0-.5-4.839,20.306,20.306,0,0,0-3.979-8.231,6,6,0,1,0-9.361,7.509,8.491,8.491,0,0,1,1.518,7.676A20.463,20.463,0,0,0,203.8,251.113a6,6,0,1,0,11.9-1.564,8.4,8.4,0,0,1,.362-3.766,8.507,8.507,0,0,1,13.041-4.228,6,6,0,0,0,7.016-9.736Z"/><path fill="#d3af94" d="M188.489,222.506a6,6,0,0,0,4.195-10.29,5.261,5.261,0,0,1-1.19-1.806,17.275,17.275,0,0,0,1.459-12.316,6,6,0,1,0-11.623,2.985,5.3,5.3,0,0,1-2.794,6.066,6,6,0,0,0,2.632,11.395,5.917,5.917,0,0,0,1.1-.112A17.342,17.342,0,0,0,184.3,220.8,5.979,5.979,0,0,0,188.489,222.506Z"/><path fill="#d3af94" d="M204.992,181.035a5.3,5.3,0,0,1,5.939,7.683,6,6,0,1,0,10.509,5.792,17.261,17.261,0,0,0,1.806-4.934,17.586,17.586,0,0,0,.269-1.922,17.27,17.27,0,0,0,9.358-4.93,6,6,0,1,0-8.579-8.391,5.207,5.207,0,0,1-4.114,1.557,17.248,17.248,0,0,0-18.172-6.478,6,6,0,1,0,2.984,11.623Z"/><path fill="#d3af94" d="M212.7,272.167a11.58,11.58,0,0,1-11.078,1.194,23.594,23.594,0,0,0-5.132-7.7,6,6,0,1,0-8.48,8.491,11.588,11.588,0,0,1,2.931,4.936c.024.094.05.187.079.279a11.624,11.624,0,0,1-2.255,10.366,6,6,0,1,0,9.258,7.634,23.657,23.657,0,0,0,5.1-11.307A23.539,23.539,0,0,0,219.581,282a6,6,0,0,0-6.881-9.831Z"/><g data-name="Path"><path fill="#f4f8fc" d="M131.211,238.221h-.022a6,6,0,0,1-5.979-6.021c.113-31.366,12.776-61.5,35.657-84.843a132.584,132.584,0,0,1,22.657-18.507,6,6,0,1,1,6.517,10.076,120.653,120.653,0,0,0-20.6,16.83c-20.68,21.1-32.125,48.265-32.227,76.487A6,6,0,0,1,131.211,238.221Z"/><path fill="#f4f8fc" d="M202.2,131.388a6,6,0,0,1-2.529-11.444c2.08-.965,4.212-1.887,6.339-2.74a6,6,0,1,1,4.471,11.135c-1.933.776-3.871,1.614-5.76,2.491A6,6,0,0,1,202.2,131.388Z"/></g></svg>