<svg xmlns="http://www.w3.org/2000/svg" width="64" height="64" viewBox="0 0 64 64"><circle cx="52" cy="59" r="2" fill="#fffa48"/><circle cx="59" cy="54" r="2" fill="#fffa48"/><circle cx="43" cy="56" r="2" fill="#fffa48"/><circle cx="7" cy="16" r="2" fill="#fffa48"/><circle cx="12" cy="23" r="2" fill="#fffa48"/><circle cx="10" cy="7" r="2" fill="#fffa48"/><circle cx="59" cy="54" r="1" fill="#fdc741"/><circle cx="52" cy="59" r="1" fill="#fdc741"/><circle cx="43" cy="56" r="1" fill="#fdc741"/><circle cx="12" cy="23" r="1" fill="#fdc741"/><circle cx="7" cy="16" r="1" fill="#fdc741"/><circle cx="10" cy="7" r="1" fill="#fdc741"/><circle cx="40" cy="24" r="22" fill="#fffa48"/><path fill="#fcea42" d="M60.46,32.077A22,22,0,1,1,30.016,4.4a21.992,21.992,0,0,0,20.46,30.077A21.77,21.77,0,0,0,60.46,32.077Z"/><circle cx="40" cy="24" r="18" fill="#fdc741"/><path fill="#efad1b" d="M40,6A18,18,0,1,0,58,24,18,18,0,0,0,40,6ZM52.627,34.486c-.673.061-1.351.1-2.039.1A22.233,22.233,0,0,1,28.353,12.353c0-.175.021-.345.025-.52A17.965,17.965,0,0,1,52.627,34.486Z"/><path fill="#ade8f4" d="M29,39H11a8,8,0,0,0-8,8v9.5a4.5,4.5,0,0,0,9,0V54.931A7.993,7.993,0,0,0,17.921,51h4.158A7.993,7.993,0,0,0,28,54.931V56.5a4.5,4.5,0,0,0,9,0V47A8,8,0,0,0,29,39Z"/><path fill="#48cae4" d="M17,35h4a2,2,0,0,1,2,2v2a0,0,0,0,1,0,0H17a0,0,0,0,1,0,0V35A0,0,0,0,1,17,35Z"/><path fill="#48cae4" d="M33,51V49a5,5,0,0,0-5-5H16a5,5,0,0,1-5-5,8,8,0,0,0-8,8v9.5a4.5,4.5,0,0,0,9,0V54.931A7.993,7.993,0,0,0,17.921,51h4.158A7.993,7.993,0,0,0,28,54.931V56.5a4.5,4.5,0,0,0,9,0v-.6A5,5,0,0,1,33,51Z"/><path fill="#00b4d8" d="M19,35H17v4h6V37H21A2,2,0,0,1,19,35Z"/><g data-name="Outline copy"><path fill="#323232" d="M60,51.184V42a1,1,0,0,0-.375-.78l-2.44-1.956a22.972,22.972,0,0,0,0-30.549,1,1,0,0,0-1.494,1.329A21,21,0,0,1,40,45a21.2,21.2,0,0,1-2.266-.132,8.92,8.92,0,0,0-.811-2.131,18.808,18.808,0,0,0,14.931-3.9,1,1,0,1,0-1.248-1.562A16.915,16.915,0,0,1,34.89,40.2h-.01a8.966,8.966,0,0,0-4.272-2.05,16.994,16.994,0,1,1,22.671-3.546,1,1,0,0,0,1.562,1.248A18.807,18.807,0,0,0,59,24,19,19,0,1,0,27.185,38H24V37a3,3,0,0,0-3-3H13V25.816A3,3,0,0,0,14.816,24H17a22.884,22.884,0,0,0,1.323,7.7,1,1,0,0,0,.942.665,1.015,1.015,0,0,0,.336-.058,1,1,0,0,0,.606-1.278A21.012,21.012,0,0,1,40,3,20.749,20.749,0,0,1,52.914,7.438a1,1,0,0,0,1.232-1.576A22.738,22.738,0,0,0,40,1a22.974,22.974,0,0,0-18.27,9.05L16.6,6.2A1,1,0,0,0,16,6H12.816a3,3,0,1,0,0,2h2.851l4.919,3.691c-.122.191-.242.382-.358.577L14.764,15H9.816a3,3,0,1,0,0,2H15a1,1,0,0,0,.447-.105l3.286-1.643A22.826,22.826,0,0,0,17.092,22H14.816A2.993,2.993,0,1,0,11,25.816V35a1,1,0,0,0,1,1h4v2H11a9.011,9.011,0,0,0-9,9,1,1,0,0,0,2,0,7.008,7.008,0,0,1,7-7H29a7.008,7.008,0,0,1,7,7v9.5A3.5,3.5,0,0,1,32.5,60a3.6,3.6,0,0,1-1.124-.179,1,1,0,0,0-.632,1.9A5.561,5.561,0,0,0,32.5,62,5.506,5.506,0,0,0,38,56.5V47c0-.034-.005-.066-.005-.1.677.059,1.35.1,2.005.1a22.991,22.991,0,0,0,4.308-.411L42.2,49.4a1,1,0,0,0-.2.6v3.184a3,3,0,1,0,2,0V50.333l3.428-4.571q.5-.169.978-.36L51,47.48v8.7a3,3,0,1,0,2,0V47a1,1,0,0,0-.375-.78l-2.174-1.742a23.093,23.093,0,0,0,5.334-3.773L58,42.48v8.7a3,3,0,1,0,2,0ZM10,8a1,1,0,1,1,1-1A1,1,0,0,1,10,8ZM7,17a1,1,0,1,1,1-1A1,1,0,0,1,7,17Zm5,5a1,1,0,1,1-1,1A1,1,0,0,1,12,22Zm6,16V36h3a1,1,0,0,1,1,1v1ZM43,57a1,1,0,1,1,1-1A1,1,0,0,1,43,57Zm9,3a1,1,0,1,1,1-1A1,1,0,0,1,52,60Zm7-5a1,1,0,1,1,1-1A1,1,0,0,1,59,55Z"/><circle cx="27" cy="24" r="1" fill="#323232"/><circle cx="53" cy="24" r="1" fill="#323232"/><path fill="#323232" d="M30.77,19.027A1,1,0,0,0,30,20v8a1,1,0,0,0,2,0V24.236l2.1,4.211A1,1,0,0,0,36,28V20a1,1,0,0,0-2,0v3.764L31.9,19.553A1,1,0,0,0,30.77,19.027Z"/><path fill="#323232" d="M43,21a1,1,0,0,0,0-2H39a1,1,0,0,0-1,1v8a1,1,0,0,0,2,0V25h2a1,1,0,0,0,0-2H40V21Z"/><path fill="#323232" d="M49,29a1,1,0,0,0,1-1V21h1a1,1,0,0,0,0-2H47a1,1,0,0,0,0,2h1v7A1,1,0,0,0,49,29Z"/><path fill="#323232" d="M46,17a1,1,0,0,0,.556-1.832l-6-4a1,1,0,0,0-1.11,0l-6,4a1,1,0,0,0,1.11,1.664L40,13.2l5.445,3.63A1,1,0,0,0,46,17Z"/><path fill="#323232" d="M39.445,36.832a1,1,0,0,0,1.11,0l6-4a1,1,0,1,0-1.11-1.664L40,34.8l-5.445-3.63a1,1,0,0,0-1.11,1.664Z"/><path fill="#323232" d="M29,56.5V54.93a1,1,0,0,0-.875-.992A7.038,7.038,0,0,1,22.946,50.5a1,1,0,0,0-.866-.5H17.92a1,1,0,0,0-.866.5,7.038,7.038,0,0,1-5.179,3.438A1,1,0,0,0,11,54.93V56.5a3.5,3.5,0,0,1-7,0V51a1,1,0,0,0-2,0v5.5a5.5,5.5,0,0,0,11,0v-.733A9.071,9.071,0,0,0,18.474,52h3.052A9.071,9.071,0,0,0,27,55.767V56.5a5.561,5.561,0,0,0,.281,1.756,1,1,0,1,0,1.9-.632A3.6,3.6,0,0,1,29,56.5Z"/><path fill="#323232" d="M11,43a1,1,0,0,0-1,1v2H8a1,1,0,0,0,0,2h2v2a1,1,0,0,0,2,0V48h2a1,1,0,0,0,0-2H12V44A1,1,0,0,0,11,43Z"/><circle cx="26" cy="47" r="1" fill="#323232"/><circle cx="22" cy="44" r="1" fill="#323232"/><circle cx="29" cy="44" r="1" fill="#323232"/><circle cx="29" cy="50" r="1" fill="#323232"/><circle cx="32" cy="47" r="1" fill="#323232"/><circle cx="18" cy="44" r="1" fill="#323232"/></g></svg>